<svg xmlns="http://www.w3.org/2000/svg" width="375" viewBox="0 0 375 375" height="375" version="1.0"><defs><clipPath id="a"><path d="M 121 108.304688 L 253 108.304688 L 253 198.304688 L 121 198.304688 Z M 121 108.304688"/></clipPath></defs><path fill="#FFF" d="M-37.5 -37.5H412.5V412.5H-37.5z"/><path fill="#FFF" d="M-37.5 -37.5H412.5V412.5H-37.5z"/><path fill="#000D16" d="M-37.5 -37.5H412.5V412.5H-37.5z"/><g fill="#C4CBD6"><g><g><path d="M 20.089844 -10.78125 C 20.136719 -13.230469 19.453125 -15.335938 17.980469 -17.003906 C 17.199219 -17.933594 17.199219 -18.324219 17.882812 -19.257812 C 20.871094 -23.226562 19.84375 -29.839844 16.660156 -32.582031 C 15.089844 -33.90625 13.230469 -34.542969 10.925781 -34.496094 C 10.140625 -34.445312 9.113281 -34.445312 7.839844 -34.445312 C 4.117188 -34.496094 3.039062 -34.59375 2.546875 -34.101562 C 2.351562 -33.90625 2.253906 -33.171875 2.253906 -31.996094 L 2.253906 -19.058594 L 0.292969 -17.933594 C 0 -17.738281 -0.0976562 -17.542969 -0.0976562 -17.199219 C -0.0976562 -16.902344 0 -16.707031 0.292969 -16.511719 L 2.253906 -15.386719 L 2.253906 -3.136719 C 2.253906 -1.519531 2.253906 -0.785156 2.597656 -0.390625 C 2.84375 -0.148438 3.234375 0 3.773438 0 C 13.082031 0.0976562 15.289062 0.539062 18.128906 -2.84375 C 19.453125 -4.410156 20.089844 -6.125 20.039062 -8.085938 C 20.039062 -9.210938 20.039062 -10.140625 20.089844 -10.78125 Z M 8.527344 -27.09375 C 8.722656 -28.320312 9.308594 -28.710938 10.582031 -28.613281 C 11.90625 -28.515625 12.738281 -27.78125 13.132812 -26.558594 L 13.425781 -25.085938 C 13.425781 -24.007812 13.179688 -22.980469 12.691406 -22.097656 C 12.394531 -21.609375 11.957031 -21.265625 11.320312 -21.070312 C 7.886719 -19.941406 8.183594 -24.695312 8.527344 -27.09375 Z M 13.082031 -7.398438 C 12.496094 -6.320312 11.464844 -5.832031 9.945312 -5.878906 C 8.230469 -5.976562 8.476562 -6.710938 8.476562 -10.339844 C 8.476562 -13.671875 8.28125 -14.308594 9.601562 -14.992188 C 10.976562 -15.628906 12.886719 -14.503906 13.425781 -12.984375 C 14.160156 -11.023438 14.011719 -9.164062 13.082031 -7.398438 Z M 13.082031 -7.398438" transform="translate(115.748 242.873)"/></g></g></g><g fill="#C4CBD6"><g><g><path d="M 17.199219 -4.753906 C 17.050781 -5.878906 16.070312 -5.734375 14.601562 -5.78125 L 9.800781 -5.78125 C 8.183594 -5.832031 7.742188 -6.320312 7.644531 -7.886719 C 7.59375 -9.40625 7.59375 -10.730469 7.691406 -11.90625 C 7.789062 -14.011719 8.28125 -14.257812 10.140625 -14.257812 C 11.5625 -14.257812 12.691406 -14.257812 13.425781 -14.308594 C 14.109375 -14.355469 14.503906 -14.699219 14.503906 -15.386719 C 14.601562 -16.414062 14.601562 -17.441406 14.550781 -18.472656 C 14.503906 -19.648438 14.210938 -19.992188 13.035156 -19.992188 C 12.691406 -20.039062 12.101562 -20.039062 11.320312 -20.039062 C 9.800781 -20.039062 8.722656 -19.992188 8.132812 -20.53125 C 7.886719 -20.824219 7.691406 -21.3125 7.691406 -21.949219 C 7.59375 -23.519531 7.59375 -25.136719 7.644531 -26.800781 C 7.742188 -28.320312 8.183594 -28.808594 9.800781 -28.859375 L 14.648438 -28.859375 C 16.070312 -28.859375 17.101562 -28.761719 17.199219 -29.9375 C 17.296875 -31.0625 17.34375 -33.515625 16.902344 -33.957031 C 16.660156 -34.152344 16.023438 -34.296875 14.894531 -34.296875 L 4.3125 -34.296875 C 1.910156 -34.296875 1.863281 -34.199219 1.863281 -31.75 L 1.863281 -3.234375 C 1.863281 -1.421875 1.8125 -0.785156 2.253906 -0.390625 C 2.695312 0 3.527344 0 4.214844 0 L 14.847656 0 C 15.875 0 17.050781 0.0976562 17.148438 -1.078125 C 17.296875 -2.253906 17.296875 -3.480469 17.199219 -4.753906 Z M 17.199219 -4.753906" transform="translate(137.747 242.873)"/></g></g></g><g fill="#C4CBD6"><g><g><path d="M 20.972656 -2.695312 L 20.972656 -31.945312 C 20.972656 -33.074219 21.070312 -34.296875 20.039062 -34.347656 C 19.304688 -34.445312 18.519531 -34.445312 17.6875 -34.445312 C 15.289062 -34.445312 15.1875 -34.347656 15.1875 -31.945312 C 15.1875 -32.140625 15.1875 -28.613281 15.140625 -21.3125 C 15.140625 -19.695312 15.1875 -19.550781 14.894531 -18.617188 C 14.796875 -18.03125 14.0625 -17.933594 13.816406 -18.519531 C 13.71875 -18.71875 13.621094 -18.960938 13.523438 -19.257812 C 13.035156 -21.019531 11.21875 -27.046875 10.4375 -29.644531 C 10.339844 -30.085938 10.140625 -30.722656 9.898438 -31.503906 C 9.601562 -32.386719 9.40625 -33.023438 9.308594 -33.367188 C 9.113281 -34.054688 8.671875 -34.394531 8.085938 -34.394531 L 3.429688 -34.394531 C 2.304688 -34.347656 2.402344 -33.171875 2.402344 -31.652344 L 2.402344 -2.988281 C 2.402344 -1.421875 2.203125 -0.195312 3.722656 0 L 5.4375 0 C 8.183594 0 8.230469 0 8.230469 -2.644531 L 8.230469 -13.277344 C 8.230469 -14.308594 8.28125 -14.992188 8.425781 -15.386719 C 8.671875 -15.972656 9.308594 -16.121094 9.601562 -15.53125 L 10.191406 -13.914062 C 10.09375 -14.160156 11.320312 -10.4375 13.816406 -2.644531 L 14.0625 -1.960938 C 14.210938 -1.617188 14.257812 -1.371094 14.308594 -1.175781 C 14.796875 0.34375 17.050781 0 18.226562 0 C 20.824219 0 20.972656 -0.0976562 20.972656 -2.695312 Z M 20.972656 -2.695312" transform="translate(157.248 242.873)"/></g></g></g><g fill="#C4CBD6"><g><g><path d="M 20.972656 -2.695312 L 20.972656 -31.945312 C 20.972656 -33.074219 21.070312 -34.296875 20.039062 -34.347656 C 19.304688 -34.445312 18.519531 -34.445312 17.6875 -34.445312 C 15.289062 -34.445312 15.1875 -34.347656 15.1875 -31.945312 C 15.1875 -32.140625 15.1875 -28.613281 15.140625 -21.3125 C 15.140625 -19.695312 15.1875 -19.550781 14.894531 -18.617188 C 14.796875 -18.03125 14.0625 -17.933594 13.816406 -18.519531 C 13.71875 -18.71875 13.621094 -18.960938 13.523438 -19.257812 C 13.035156 -21.019531 11.21875 -27.046875 10.4375 -29.644531 C 10.339844 -30.085938 10.140625 -30.722656 9.898438 -31.503906 C 9.601562 -32.386719 9.40625 -33.023438 9.308594 -33.367188 C 9.113281 -34.054688 8.671875 -34.394531 8.085938 -34.394531 L 3.429688 -34.394531 C 2.304688 -34.347656 2.402344 -33.171875 2.402344 -31.652344 L 2.402344 -2.988281 C 2.402344 -1.421875 2.203125 -0.195312 3.722656 0 L 5.4375 0 C 8.183594 0 8.230469 0 8.230469 -2.644531 L 8.230469 -13.277344 C 8.230469 -14.308594 8.28125 -14.992188 8.425781 -15.386719 C 8.671875 -15.972656 9.308594 -16.121094 9.601562 -15.53125 L 10.191406 -13.914062 C 10.09375 -14.160156 11.320312 -10.4375 13.816406 -2.644531 L 14.0625 -1.960938 C 14.210938 -1.617188 14.257812 -1.371094 14.308594 -1.175781 C 14.796875 0.34375 17.050781 0 18.226562 0 C 20.824219 0 20.972656 -0.0976562 20.972656 -2.695312 Z M 20.972656 -2.695312" transform="translate(180.521 242.873)"/></g></g></g><g fill="#C4CBD6"><g><g><path d="M 20.234375 -34.25 C 19.15625 -34.296875 17.738281 -34.296875 15.972656 -34.296875 C 15.433594 -34.25 15.042969 -33.957031 14.847656 -33.417969 C 14.503906 -32.535156 13.964844 -30.820312 13.132812 -28.171875 C 12.789062 -27.144531 12.542969 -26.359375 12.296875 -25.675781 C 12.199219 -25.28125 12.003906 -25.085938 11.660156 -25.085938 C 11.121094 -25.085938 10.828125 -25.917969 10.632812 -26.558594 C 10.339844 -27.390625 9.75 -29.300781 9.601562 -29.886719 C 9.164062 -31.261719 8.769531 -32.386719 8.476562 -33.171875 C 8.28125 -33.808594 7.9375 -34.152344 7.496094 -34.25 C 5.976562 -34.445312 4.359375 -34.445312 2.695312 -34.25 C 2.304688 -34.199219 2.007812 -33.757812 2.105469 -33.367188 C 2.253906 -32.828125 2.402344 -32.289062 2.597656 -31.703125 L 6.371094 -20.773438 C 7.546875 -17.542969 7.988281 -16.121094 8.476562 -14.453125 C 8.820312 -13.375 8.867188 -12.296875 8.820312 -11.320312 L 8.820312 -4.019531 C 8.820312 -2.5 8.867188 -1.617188 8.867188 -1.273438 C 8.964844 -0.34375 9.261719 -0.0507812 10.191406 0 L 11.957031 0 C 14.601562 0 14.601562 0 14.601562 -2.695312 C 14.648438 -4.507812 14.648438 -7.886719 14.601562 -12.886719 C 14.601562 -13.472656 14.601562 -14.011719 14.75 -14.503906 C 16.855469 -21.265625 18.914062 -26.507812 20.824219 -32.140625 C 21.117188 -32.925781 21.265625 -33.464844 20.972656 -33.90625 C 20.773438 -34.152344 20.53125 -34.25 20.234375 -34.25 Z M 20.234375 -34.25" transform="translate(203.794 242.873)"/></g></g></g><g fill="#C4CBD6"><g><g><path d="M 18.960938 -27.195312 C 18.472656 -33.121094 13.425781 -34.394531 10.484375 -34.394531 L 4.851562 -34.394531 C 2.402344 -34.394531 2.351562 -34.347656 2.351562 -31.945312 L 2.351562 -18.914062 L 0.390625 -17.785156 C 0.148438 -17.640625 0 -17.441406 0 -17.101562 C 0 -16.804688 0.148438 -16.5625 0.390625 -16.414062 L 2.351562 -15.289062 L 2.351562 -2.351562 C 2.351562 -1.175781 2.253906 -0.0976562 3.429688 0 C 4.949219 0.0976562 7.351562 0.148438 7.789062 -0.292969 C 7.988281 -0.488281 8.132812 -1.078125 8.132812 -1.960938 L 8.132812 -9.652344 C 8.132812 -11.21875 7.886719 -12.394531 9.554688 -12.59375 C 9.800781 -12.640625 10.535156 -12.691406 11.660156 -12.691406 C 12.542969 -12.738281 13.230469 -12.835938 13.71875 -13.035156 C 16.804688 -14.210938 18.863281 -16.953125 19.011719 -20.234375 L 19.011719 -23.519531 C 19.011719 -25.820312 19.011719 -27.046875 18.960938 -27.195312 Z M 13.472656 -21.117188 C 13.179688 -19.15625 11.417969 -17.933594 9.554688 -18.226562 C 8.671875 -18.375 8.230469 -18.863281 8.183594 -19.648438 L 8.183594 -23.519531 L 8.132812 -23.519531 C 8.132812 -27.585938 7.59375 -28.710938 10.191406 -28.515625 C 13.816406 -28.222656 13.914062 -24.449219 13.472656 -21.117188 Z M 13.472656 -21.117188" transform="translate(238.287 242.873)"/></g></g></g><g fill="#79A1B8"><g><g><path d="M 8.953125 2.515625 C 7.503906 2.160156 6.257812 1.660156 5.21875 1.015625 C 4.1875 0.378906 3.289062 -0.484375 2.53125 -1.578125 C 2.101562 -2.203125 1.960938 -2.800781 2.109375 -3.375 C 2.222656 -3.84375 2.492188 -4.207031 2.921875 -4.46875 C 3.347656 -4.738281 3.796875 -4.816406 4.265625 -4.703125 C 4.648438 -4.609375 4.960938 -4.398438 5.203125 -4.078125 C 5.847656 -3.222656 6.515625 -2.550781 7.203125 -2.0625 C 7.890625 -1.570312 8.753906 -1.195312 9.796875 -0.9375 C 10.921875 -0.664062 11.953125 -0.679688 12.890625 -0.984375 C 13.828125 -1.296875 14.390625 -1.820312 14.578125 -2.5625 C 14.796875 -3.46875 14.566406 -4.273438 13.890625 -4.984375 C 13.210938 -5.691406 12.035156 -6.382812 10.359375 -7.0625 C 6.109375 -8.789062 4.40625 -11.378906 5.25 -14.828125 C 5.5625 -16.097656 6.160156 -17.113281 7.046875 -17.875 C 7.941406 -18.644531 9.019531 -19.140625 10.28125 -19.359375 C 11.550781 -19.578125 12.890625 -19.515625 14.296875 -19.171875 C 15.554688 -18.859375 16.695312 -18.375 17.71875 -17.71875 C 18.738281 -17.0625 19.550781 -16.328125 20.15625 -15.515625 C 20.613281 -14.921875 20.769531 -14.320312 20.625 -13.71875 C 20.507812 -13.257812 20.238281 -12.894531 19.8125 -12.625 C 19.382812 -12.363281 18.9375 -12.289062 18.46875 -12.40625 C 18.164062 -12.476562 17.921875 -12.625 17.734375 -12.84375 C 17.304688 -13.40625 16.671875 -13.972656 15.828125 -14.546875 C 14.992188 -15.117188 14.203125 -15.5 13.453125 -15.6875 C 12.179688 -16 11.140625 -16.003906 10.328125 -15.703125 C 9.523438 -15.398438 9.03125 -14.867188 8.84375 -14.109375 C 8.632812 -13.242188 8.832031 -12.503906 9.4375 -11.890625 C 10.039062 -11.273438 11.070312 -10.640625 12.53125 -9.984375 C 14.1875 -9.265625 15.472656 -8.539062 16.390625 -7.8125 C 17.304688 -7.082031 17.925781 -6.25 18.25 -5.3125 C 18.570312 -4.375 18.566406 -3.234375 18.234375 -1.890625 C 17.921875 -0.617188 17.289062 0.398438 16.34375 1.171875 C 15.394531 1.953125 14.265625 2.453125 12.953125 2.671875 C 11.648438 2.898438 10.316406 2.847656 8.953125 2.515625 Z M 8.953125 2.515625" transform="translate(47.675 257.89)"/></g></g></g><g fill="#79A1B8"><g><g><path d="M 17.296875 -13.4375 C 17.816406 -13.332031 18.210938 -13.070312 18.484375 -12.65625 C 18.765625 -12.238281 18.851562 -11.765625 18.75 -11.234375 L 16.171875 1.6875 C 15.640625 4.320312 14.539062 6.097656 12.875 7.015625 C 11.21875 7.941406 9.207031 8.164062 6.84375 7.6875 C 6.144531 7.550781 5.445312 7.351562 4.75 7.09375 C 4.0625 6.84375 3.515625 6.582031 3.109375 6.3125 C 2.203125 5.6875 1.828125 5 1.984375 4.25 C 2.003906 4.113281 2.0625 3.957031 2.15625 3.78125 C 2.351562 3.363281 2.625 3.066406 2.96875 2.890625 C 3.3125 2.710938 3.65625 2.660156 4 2.734375 C 4.207031 2.773438 4.394531 2.84375 4.5625 2.9375 C 4.6875 3.019531 4.910156 3.171875 5.234375 3.390625 C 5.566406 3.609375 5.921875 3.800781 6.296875 3.96875 C 6.679688 4.144531 7.085938 4.273438 7.515625 4.359375 C 8.953125 4.648438 10.070312 4.550781 10.875 4.0625 C 11.675781 3.582031 12.222656 2.59375 12.515625 1.09375 L 12.578125 0.78125 C 11.253906 1.882812 9.484375 2.21875 7.265625 1.78125 C 6.210938 1.5625 5.328125 1.117188 4.609375 0.453125 C 3.898438 -0.203125 3.410156 -1.015625 3.140625 -1.984375 C 2.867188 -2.953125 2.847656 -4.003906 3.078125 -5.140625 L 4.84375 -14.015625 C 4.945312 -14.546875 5.207031 -14.953125 5.625 -15.234375 C 6.039062 -15.515625 6.515625 -15.597656 7.046875 -15.484375 C 7.578125 -15.378906 7.976562 -15.117188 8.25 -14.703125 C 8.519531 -14.285156 8.601562 -13.8125 8.5 -13.28125 L 6.953125 -5.515625 C 6.691406 -4.234375 6.785156 -3.253906 7.234375 -2.578125 C 7.679688 -1.910156 8.441406 -1.46875 9.515625 -1.25 C 10.566406 -1.039062 11.445312 -1.1875 12.15625 -1.6875 C 12.863281 -2.195312 13.332031 -3.035156 13.5625 -4.203125 L 15.109375 -11.96875 C 15.210938 -12.5 15.46875 -12.898438 15.875 -13.171875 C 16.289062 -13.453125 16.765625 -13.539062 17.296875 -13.4375 Z M 17.296875 -13.4375" transform="translate(70.669 263.406)"/></g></g></g><g fill="#79A1B8"><g><g><path d="M 1.4375 -2.375 C 1.300781 -2.644531 1.257812 -2.960938 1.3125 -3.328125 C 1.394531 -3.867188 1.734375 -4.273438 2.328125 -4.546875 C 2.640625 -4.691406 2.953125 -4.738281 3.265625 -4.6875 C 3.691406 -4.625 4.066406 -4.367188 4.390625 -3.921875 C 4.898438 -3.179688 5.460938 -2.609375 6.078125 -2.203125 C 6.703125 -1.796875 7.484375 -1.519531 8.421875 -1.375 C 10.023438 -1.175781 10.914062 -1.644531 11.09375 -2.78125 C 11.1875 -3.375 10.984375 -3.867188 10.484375 -4.265625 C 9.992188 -4.660156 9.195312 -5.097656 8.09375 -5.578125 C 6.96875 -6.085938 6.054688 -6.566406 5.359375 -7.015625 C 4.671875 -7.460938 4.109375 -8.0625 3.671875 -8.8125 C 3.234375 -9.570312 3.109375 -10.507812 3.296875 -11.625 C 3.441406 -12.601562 3.851562 -13.410156 4.53125 -14.046875 C 5.21875 -14.691406 6.046875 -15.140625 7.015625 -15.390625 C 7.984375 -15.640625 8.976562 -15.679688 10 -15.515625 C 11.039062 -15.347656 12.050781 -14.988281 13.03125 -14.4375 C 14.007812 -13.894531 14.734375 -13.191406 15.203125 -12.328125 C 15.410156 -11.972656 15.484375 -11.585938 15.421875 -11.171875 C 15.347656 -10.703125 15.09375 -10.34375 14.65625 -10.09375 C 14.34375 -9.925781 14.003906 -9.867188 13.640625 -9.921875 C 13.179688 -9.992188 12.828125 -10.195312 12.578125 -10.53125 C 12.296875 -11.03125 11.882812 -11.457031 11.34375 -11.8125 C 10.800781 -12.175781 10.160156 -12.414062 9.421875 -12.53125 C 7.867188 -12.78125 7.003906 -12.34375 6.828125 -11.21875 C 6.753906 -10.769531 6.835938 -10.382812 7.078125 -10.0625 C 7.328125 -9.75 7.65625 -9.476562 8.0625 -9.25 C 8.476562 -9.03125 9.070312 -8.742188 9.84375 -8.390625 C 10.894531 -7.910156 11.757812 -7.445312 12.4375 -7 C 13.125 -6.550781 13.671875 -5.953125 14.078125 -5.203125 C 14.484375 -4.453125 14.597656 -3.523438 14.421875 -2.421875 C 14.253906 -1.421875 13.816406 -0.597656 13.109375 0.046875 C 12.398438 0.703125 11.550781 1.148438 10.5625 1.390625 C 9.570312 1.640625 8.585938 1.6875 7.609375 1.53125 C 6.253906 1.3125 5.03125 0.882812 3.9375 0.25 C 2.851562 -0.375 2.019531 -1.25 1.4375 -2.375 Z M 1.4375 -2.375" transform="translate(93.54 267.841)"/></g></g></g><g fill="#79A1B8"><g><g><path d="M 10.375 -2.234375 C 10.664062 -2.203125 10.910156 -2.035156 11.109375 -1.734375 C 11.304688 -1.429688 11.378906 -1.050781 11.328125 -0.59375 C 11.253906 -0.03125 10.890625 0.394531 10.234375 0.6875 C 9.578125 0.988281 8.875 1.09375 8.125 1 C 6.851562 0.84375 5.8125 0.441406 5 -0.203125 C 4.195312 -0.847656 3.90625 -2.054688 4.125 -3.828125 L 5.171875 -12.3125 L 3.765625 -12.5 C 3.265625 -12.5625 2.875 -12.773438 2.59375 -13.140625 C 2.3125 -13.503906 2.203125 -13.929688 2.265625 -14.421875 C 2.316406 -14.898438 2.523438 -15.28125 2.890625 -15.5625 C 3.253906 -15.84375 3.6875 -15.953125 4.1875 -15.890625 L 5.59375 -15.703125 L 5.84375 -17.671875 C 5.90625 -18.203125 6.140625 -18.625 6.546875 -18.9375 C 6.960938 -19.257812 7.429688 -19.390625 7.953125 -19.328125 C 8.472656 -19.253906 8.878906 -19.015625 9.171875 -18.609375 C 9.472656 -18.210938 9.59375 -17.75 9.53125 -17.21875 L 9.28125 -15.25 L 11.46875 -14.984375 C 11.96875 -14.921875 12.359375 -14.703125 12.640625 -14.328125 C 12.929688 -13.960938 13.046875 -13.53125 12.984375 -13.03125 C 12.929688 -12.5625 12.71875 -12.1875 12.34375 -11.90625 C 11.976562 -11.632812 11.546875 -11.53125 11.046875 -11.59375 L 8.859375 -11.859375 L 7.828125 -3.53125 C 7.773438 -3.09375 7.847656 -2.757812 8.046875 -2.53125 C 8.253906 -2.3125 8.554688 -2.175781 8.953125 -2.125 C 9.109375 -2.101562 9.332031 -2.117188 9.625 -2.171875 C 9.894531 -2.242188 10.144531 -2.265625 10.375 -2.234375 Z M 10.375 -2.234375" transform="translate(113.292 270.874)"/></g></g></g><g fill="#79A1B8"><g><g><path d="M 17.578125 -7.203125 C 17.515625 -6.703125 17.28125 -6.3125 16.875 -6.03125 C 16.476562 -5.757812 16.03125 -5.644531 15.53125 -5.6875 L 5.359375 -6.5625 C 5.492188 -5.332031 5.972656 -4.332031 6.796875 -3.5625 C 7.628906 -2.789062 8.601562 -2.359375 9.71875 -2.265625 C 10.550781 -2.191406 11.210938 -2.210938 11.703125 -2.328125 C 12.203125 -2.441406 12.59375 -2.578125 12.875 -2.734375 C 13.164062 -2.890625 13.367188 -2.992188 13.484375 -3.046875 C 13.878906 -3.203125 14.242188 -3.265625 14.578125 -3.234375 C 14.992188 -3.191406 15.34375 -3 15.625 -2.65625 C 15.90625 -2.320312 16.03125 -1.945312 16 -1.53125 C 15.945312 -0.988281 15.613281 -0.515625 15 -0.109375 C 14.394531 0.304688 13.585938 0.640625 12.578125 0.890625 C 11.578125 1.140625 10.585938 1.222656 9.609375 1.140625 C 7.867188 0.992188 6.382812 0.503906 5.15625 -0.328125 C 3.9375 -1.160156 3.03125 -2.238281 2.4375 -3.5625 C 1.851562 -4.894531 1.628906 -6.351562 1.765625 -7.9375 C 1.921875 -9.695312 2.425781 -11.21875 3.28125 -12.5 C 4.132812 -13.78125 5.195312 -14.722656 6.46875 -15.328125 C 7.75 -15.929688 9.082031 -16.171875 10.46875 -16.046875 C 11.820312 -15.929688 13.066406 -15.453125 14.203125 -14.609375 C 15.347656 -13.765625 16.226562 -12.679688 16.84375 -11.359375 C 17.457031 -10.035156 17.703125 -8.648438 17.578125 -7.203125 Z M 10.171875 -12.65625 C 7.785156 -12.863281 6.285156 -11.867188 5.671875 -9.671875 L 13.75 -8.96875 L 13.765625 -9.1875 C 13.753906 -10.050781 13.394531 -10.820312 12.6875 -11.5 C 11.988281 -12.1875 11.148438 -12.570312 10.171875 -12.65625 Z M 10.171875 -12.65625" transform="translate(130.917 273.01)"/></g></g></g><g fill="#79A1B8"><g><g><path d="M 21.6875 -16.15625 C 23.726562 -16.09375 25.117188 -15.425781 25.859375 -14.15625 C 26.609375 -12.882812 26.945312 -11.144531 26.875 -8.9375 L 26.609375 -1 C 26.585938 -0.457031 26.394531 -0.015625 26.03125 0.328125 C 25.675781 0.679688 25.226562 0.847656 24.6875 0.828125 C 24.15625 0.816406 23.71875 0.625 23.375 0.25 C 23.03125 -0.125 22.867188 -0.582031 22.890625 -1.125 L 23.15625 -9.0625 C 23.195312 -10.195312 23.003906 -11.09375 22.578125 -11.75 C 22.160156 -12.414062 21.394531 -12.765625 20.28125 -12.796875 C 19.125 -12.835938 18.207031 -12.523438 17.53125 -11.859375 C 16.863281 -11.191406 16.507812 -10.332031 16.46875 -9.28125 L 16.203125 -1.34375 C 16.179688 -0.800781 15.988281 -0.351562 15.625 0 C 15.257812 0.34375 14.8125 0.503906 14.28125 0.484375 C 13.738281 0.460938 13.300781 0.269531 12.96875 -0.09375 C 12.632812 -0.46875 12.476562 -0.925781 12.5 -1.46875 L 12.765625 -9.40625 C 12.804688 -10.539062 12.613281 -11.4375 12.1875 -12.09375 C 11.757812 -12.757812 10.988281 -13.113281 9.875 -13.15625 C 8.71875 -13.1875 7.800781 -12.867188 7.125 -12.203125 C 6.457031 -11.546875 6.101562 -10.691406 6.0625 -9.640625 L 5.796875 -1.703125 C 5.773438 -1.160156 5.582031 -0.710938 5.21875 -0.359375 C 4.863281 -0.015625 4.414062 0.144531 3.875 0.125 C 3.332031 0.113281 2.890625 -0.078125 2.546875 -0.453125 C 2.210938 -0.828125 2.054688 -1.285156 2.078125 -1.828125 L 2.515625 -14.609375 C 2.523438 -15.148438 2.710938 -15.59375 3.078125 -15.9375 C 3.441406 -16.28125 3.894531 -16.445312 4.4375 -16.4375 C 4.976562 -16.414062 5.414062 -16.21875 5.75 -15.84375 C 6.082031 -15.476562 6.242188 -15.023438 6.234375 -14.484375 L 6.21875 -14 C 6.800781 -14.71875 7.523438 -15.320312 8.390625 -15.8125 C 9.265625 -16.3125 10.226562 -16.546875 11.28125 -16.515625 C 13.875 -16.421875 15.5 -15.226562 16.15625 -12.9375 C 16.664062 -13.78125 17.410156 -14.535156 18.390625 -15.203125 C 19.367188 -15.878906 20.46875 -16.195312 21.6875 -16.15625 Z M 21.6875 -16.15625" transform="translate(154.06 275.005)"/></g></g></g><g fill="#79A1B8"><g><g><path d="M 10.59375 -22.21875 C 12.53125 -22.3125 14.21875 -21.910156 15.65625 -21.015625 C 17.09375 -20.117188 18.21875 -18.867188 19.03125 -17.265625 C 19.84375 -15.660156 20.296875 -13.84375 20.390625 -11.8125 C 20.484375 -9.789062 20.203125 -7.941406 19.546875 -6.265625 C 18.890625 -4.597656 17.882812 -3.25 16.53125 -2.21875 C 15.1875 -1.195312 13.546875 -0.640625 11.609375 -0.546875 L 4.21875 -0.203125 C 3.675781 -0.171875 3.21875 -0.328125 2.84375 -0.671875 C 2.46875 -1.015625 2.265625 -1.457031 2.234375 -2 L 1.390625 -19.90625 C 1.367188 -20.4375 1.53125 -20.890625 1.875 -21.265625 C 2.21875 -21.640625 2.660156 -21.84375 3.203125 -21.875 Z M 11.125 -4.09375 C 12.988281 -4.1875 14.351562 -4.9375 15.21875 -6.34375 C 16.082031 -7.757812 16.460938 -9.519531 16.359375 -11.625 C 16.265625 -13.738281 15.710938 -15.457031 14.703125 -16.78125 C 13.703125 -18.113281 12.28125 -18.738281 10.4375 -18.65625 L 5.34375 -18.421875 L 6.03125 -3.859375 Z M 11.125 -4.09375" transform="translate(201.53 275.714)"/></g></g></g><g fill="#79A1B8"><g><g><path d="M 16 -10.234375 C 16.03125 -9.734375 15.875 -9.304688 15.53125 -8.953125 C 15.195312 -8.609375 14.78125 -8.410156 14.28125 -8.359375 L 4.109375 -7.421875 C 4.460938 -6.234375 5.113281 -5.332031 6.0625 -4.71875 C 7.019531 -4.113281 8.050781 -3.863281 9.15625 -3.96875 C 10 -4.039062 10.648438 -4.175781 11.109375 -4.375 C 11.578125 -4.582031 11.9375 -4.785156 12.1875 -4.984375 C 12.445312 -5.191406 12.625 -5.332031 12.71875 -5.40625 C 13.070312 -5.625 13.414062 -5.75 13.75 -5.78125 C 14.175781 -5.820312 14.5625 -5.695312 14.90625 -5.40625 C 15.25 -5.125 15.441406 -4.773438 15.484375 -4.359375 C 15.535156 -3.804688 15.289062 -3.28125 14.75 -2.78125 C 14.21875 -2.257812 13.484375 -1.785156 12.546875 -1.359375 C 11.609375 -0.941406 10.644531 -0.6875 9.65625 -0.59375 C 7.925781 -0.425781 6.382812 -0.640625 5.03125 -1.234375 C 3.675781 -1.835938 2.585938 -2.738281 1.765625 -3.9375 C 0.953125 -5.132812 0.472656 -6.53125 0.328125 -8.125 C 0.160156 -9.882812 0.382812 -11.46875 1 -12.875 C 1.613281 -14.289062 2.492188 -15.410156 3.640625 -16.234375 C 4.785156 -17.054688 6.046875 -17.53125 7.421875 -17.65625 C 8.785156 -17.78125 10.101562 -17.53125 11.375 -16.90625 C 12.65625 -16.28125 13.710938 -15.375 14.546875 -14.1875 C 15.378906 -13 15.863281 -11.679688 16 -10.234375 Z M 7.75 -14.265625 C 5.363281 -14.046875 4.066406 -12.796875 3.859375 -10.515625 L 11.921875 -11.265625 L 11.890625 -11.484375 C 11.734375 -12.335938 11.25 -13.035156 10.4375 -13.578125 C 9.625 -14.128906 8.726562 -14.359375 7.75 -14.265625 Z M 7.75 -14.265625" transform="translate(228.832 274.258)"/></g></g></g><g fill="#79A1B8"><g><g><path d="M 0.6875 -2.703125 C 0.488281 -2.910156 0.363281 -3.203125 0.3125 -3.578125 C 0.238281 -4.117188 0.441406 -4.597656 0.921875 -5.015625 C 1.179688 -5.242188 1.46875 -5.378906 1.78125 -5.421875 C 2.195312 -5.472656 2.628906 -5.332031 3.078125 -5 C 3.785156 -4.445312 4.488281 -4.0625 5.1875 -3.84375 C 5.894531 -3.632812 6.71875 -3.59375 7.65625 -3.71875 C 9.257812 -3.988281 9.984375 -4.695312 9.828125 -5.84375 C 9.742188 -6.4375 9.40625 -6.847656 8.8125 -7.078125 C 8.226562 -7.316406 7.347656 -7.507812 6.171875 -7.65625 C 4.929688 -7.832031 3.914062 -8.035156 3.125 -8.265625 C 2.332031 -8.492188 1.617188 -8.90625 0.984375 -9.5 C 0.359375 -10.09375 -0.03125 -10.953125 -0.1875 -12.078125 C -0.3125 -13.054688 -0.144531 -13.945312 0.3125 -14.75 C 0.78125 -15.550781 1.445312 -16.210938 2.3125 -16.734375 C 3.175781 -17.253906 4.117188 -17.582031 5.140625 -17.71875 C 6.179688 -17.851562 7.25 -17.796875 8.34375 -17.546875 C 9.445312 -17.304688 10.347656 -16.847656 11.046875 -16.171875 C 11.347656 -15.878906 11.523438 -15.523438 11.578125 -15.109375 C 11.640625 -14.640625 11.5 -14.226562 11.15625 -13.875 C 10.90625 -13.613281 10.59375 -13.457031 10.21875 -13.40625 C 9.769531 -13.34375 9.378906 -13.4375 9.046875 -13.6875 C 8.628906 -14.09375 8.109375 -14.390625 7.484375 -14.578125 C 6.867188 -14.765625 6.191406 -14.804688 5.453125 -14.703125 C 3.890625 -14.492188 3.179688 -13.828125 3.328125 -12.703125 C 3.390625 -12.253906 3.582031 -11.910156 3.90625 -11.671875 C 4.238281 -11.441406 4.632812 -11.273438 5.09375 -11.171875 C 5.550781 -11.078125 6.195312 -10.96875 7.03125 -10.84375 C 8.175781 -10.6875 9.140625 -10.492188 9.921875 -10.265625 C 10.703125 -10.035156 11.390625 -9.613281 11.984375 -9 C 12.585938 -8.394531 12.96875 -7.539062 13.125 -6.4375 C 13.257812 -5.425781 13.078125 -4.507812 12.578125 -3.6875 C 12.085938 -2.875 11.398438 -2.207031 10.515625 -1.6875 C 9.640625 -1.164062 8.710938 -0.84375 7.734375 -0.71875 C 6.378906 -0.53125 5.085938 -0.582031 3.859375 -0.875 C 2.628906 -1.164062 1.570312 -1.773438 0.6875 -2.703125 Z M 0.6875 -2.703125" transform="translate(251.796 271.977)"/></g></g></g><g fill="#79A1B8"><g><g><path d="M 5.125 -2.75 C 5.21875 -2.21875 5.117188 -1.742188 4.828125 -1.328125 C 4.546875 -0.921875 4.140625 -0.675781 3.609375 -0.59375 C 3.085938 -0.507812 2.617188 -0.613281 2.203125 -0.90625 C 1.796875 -1.207031 1.546875 -1.625 1.453125 -2.15625 L -0.609375 -14.796875 C -0.691406 -15.328125 -0.582031 -15.796875 -0.28125 -16.203125 C 0.0078125 -16.617188 0.414062 -16.867188 0.9375 -16.953125 C 1.46875 -17.035156 1.929688 -16.925781 2.328125 -16.625 C 2.734375 -16.332031 2.976562 -15.921875 3.0625 -15.390625 Z M 0.578125 -18.921875 C -0.117188 -18.804688 -0.625 -18.84375 -0.9375 -19.03125 C -1.257812 -19.21875 -1.46875 -19.597656 -1.5625 -20.171875 L -1.65625 -20.75 C -1.75 -21.320312 -1.660156 -21.738281 -1.390625 -22 C -1.128906 -22.269531 -0.660156 -22.460938 0.015625 -22.578125 C 0.722656 -22.691406 1.238281 -22.660156 1.5625 -22.484375 C 1.882812 -22.316406 2.09375 -21.945312 2.1875 -21.375 L 2.28125 -20.796875 C 2.375 -20.203125 2.289062 -19.769531 2.03125 -19.5 C 1.769531 -19.238281 1.285156 -19.046875 0.578125 -18.921875 Z M 0.578125 -18.921875" transform="translate(271.53 269.213)"/></g></g></g><g fill="#79A1B8"><g><g><path d="M 12.15625 -19.625 C 12.675781 -19.726562 13.144531 -19.644531 13.5625 -19.375 C 13.976562 -19.101562 14.238281 -18.691406 14.34375 -18.140625 L 17.03125 -4.609375 C 17.519531 -2.128906 17.113281 -0.148438 15.8125 1.328125 C 14.519531 2.816406 12.703125 3.796875 10.359375 4.265625 C 9.753906 4.378906 8.898438 4.441406 7.796875 4.453125 C 6.691406 4.460938 5.898438 4.410156 5.421875 4.296875 C 4.328125 4.066406 3.703125 3.578125 3.546875 2.828125 C 3.523438 2.679688 3.523438 2.507812 3.546875 2.3125 C 3.585938 1.851562 3.734375 1.476562 3.984375 1.1875 C 4.234375 0.894531 4.53125 0.710938 4.875 0.640625 C 5.070312 0.597656 5.269531 0.59375 5.46875 0.625 C 5.539062 0.625 6.078125 0.710938 7.078125 0.890625 C 8.078125 1.066406 8.953125 1.082031 9.703125 0.9375 C 11.203125 0.632812 12.257812 0.113281 12.875 -0.625 C 13.5 -1.375 13.703125 -2.300781 13.484375 -3.40625 L 13.203125 -4.859375 C 12.878906 -4.140625 12.316406 -3.4375 11.515625 -2.75 C 10.710938 -2.0625 9.789062 -1.613281 8.75 -1.40625 C 7.34375 -1.132812 5.976562 -1.242188 4.65625 -1.734375 C 3.34375 -2.222656 2.226562 -3.035156 1.3125 -4.171875 C 0.394531 -5.316406 -0.222656 -6.703125 -0.546875 -8.328125 C -0.867188 -9.941406 -0.828125 -11.457031 -0.421875 -12.875 C -0.0234375 -14.300781 0.671875 -15.484375 1.671875 -16.421875 C 2.679688 -17.367188 3.878906 -17.984375 5.265625 -18.265625 C 6.304688 -18.472656 7.316406 -18.453125 8.296875 -18.203125 C 9.273438 -17.960938 10.097656 -17.585938 10.765625 -17.078125 L 10.703125 -17.421875 C 10.597656 -17.953125 10.679688 -18.425781 10.953125 -18.84375 C 11.222656 -19.257812 11.625 -19.519531 12.15625 -19.625 Z M 8.546875 -4.84375 C 9.898438 -5.113281 10.914062 -5.816406 11.59375 -6.953125 C 12.269531 -8.097656 12.460938 -9.398438 12.171875 -10.859375 C 11.878906 -12.316406 11.203125 -13.441406 10.140625 -14.234375 C 9.085938 -15.035156 7.882812 -15.300781 6.53125 -15.03125 C 5.164062 -14.757812 4.15625 -14.054688 3.5 -12.921875 C 2.84375 -11.785156 2.660156 -10.488281 2.953125 -9.03125 C 3.242188 -7.570312 3.90625 -6.441406 4.9375 -5.640625 C 5.976562 -4.835938 7.179688 -4.570312 8.546875 -4.84375 Z M 8.546875 -4.84375" transform="translate(283.723 267.237)"/></g></g></g><g fill="#79A1B8"><g><g><path d="M 6.546875 -19 C 8.597656 -19.5 10.164062 -19.238281 11.25 -18.21875 C 12.332031 -17.195312 13.132812 -15.613281 13.65625 -13.46875 L 15.546875 -5.765625 C 15.679688 -5.234375 15.617188 -4.75 15.359375 -4.3125 C 15.097656 -3.882812 14.703125 -3.601562 14.171875 -3.46875 C 13.660156 -3.34375 13.191406 -3.410156 12.765625 -3.671875 C 12.335938 -3.941406 12.054688 -4.34375 11.921875 -4.875 L 10.03125 -12.578125 C 9.757812 -13.679688 9.316406 -14.488281 8.703125 -15 C 8.085938 -15.519531 7.21875 -15.644531 6.09375 -15.375 C 4.9375 -15.082031 4.101562 -14.519531 3.59375 -13.6875 C 3.09375 -12.851562 2.96875 -11.925781 3.21875 -10.90625 L 5.109375 -3.203125 C 5.242188 -2.671875 5.179688 -2.1875 4.921875 -1.75 C 4.671875 -1.320312 4.285156 -1.046875 3.765625 -0.921875 C 3.234375 -0.796875 2.753906 -0.863281 2.328125 -1.125 C 1.910156 -1.394531 1.632812 -1.796875 1.5 -2.328125 L -1.546875 -14.75 C -1.671875 -15.269531 -1.601562 -15.75 -1.34375 -16.1875 C -1.09375 -16.625 -0.703125 -16.90625 -0.171875 -17.03125 C 0.347656 -17.15625 0.816406 -17.082031 1.234375 -16.8125 C 1.660156 -16.539062 1.9375 -16.144531 2.0625 -15.625 L 2.1875 -15.125 C 2.5625 -15.976562 3.117188 -16.769531 3.859375 -17.5 C 4.609375 -18.238281 5.503906 -18.738281 6.546875 -19 Z M 6.546875 -19" transform="translate(308 262.287)"/></g></g></g><g clip-path="url(#a)"><path fill="#79A1B8" d="M 236.417969 194.265625 L 137.269531 194.265625 C 131.378906 194.265625 126.488281 189.996094 125.523438 184.398438 L 248.152344 184.398438 C 247.210938 189.996094 242.308594 194.265625 236.417969 194.265625 Z M 133.042969 114.78125 C 133.042969 113.359375 134.15625 112.238281 135.585938 112.238281 L 238.078125 112.238281 C 239.507812 112.238281 240.636719 113.359375 240.636719 114.78125 L 240.636719 180.421875 L 133.042969 180.421875 Z M 250.304688 180.445312 L 244.621094 180.445312 L 244.621094 114.78125 C 244.621094 111.207031 241.703125 108.292969 238.089844 108.292969 L 135.585938 108.292969 C 131.996094 108.292969 129.066406 111.207031 129.066406 114.78125 L 129.066406 180.421875 L 123.386719 180.421875 C 122.28125 180.445312 121.398438 181.324219 121.398438 182.421875 C 121.398438 191.132812 128.519531 198.21875 137.269531 198.21875 L 236.417969 198.21875 C 245.167969 198.21875 252.289062 191.132812 252.289062 182.421875 C 252.289062 181.324219 251.417969 180.445312 250.304688 180.445312"/></g><path fill="#79A1B8" d="M 229.257812 171.632812 L 144.429688 171.632812 L 144.429688 121.152344 L 229.246094 121.152344 L 229.246094 171.632812 Z M 231.246094 117.210938 L 142.441406 117.210938 C 141.339844 117.210938 140.457031 118.089844 140.457031 119.1875 L 140.457031 173.609375 C 140.457031 174.710938 141.339844 175.589844 142.441406 175.589844 L 231.222656 175.589844 C 232.328125 175.589844 233.210938 174.710938 233.210938 173.609375 L 233.210938 119.1875 C 233.234375 118.089844 232.328125 117.210938 231.246094 117.210938"/><path fill="#79A1B8" d="M 181.253906 162.070312 C 181.488281 162.148438 181.695312 162.183594 181.917969 162.183594 C 182.730469 162.183594 183.484375 161.675781 183.777344 160.867188 L 193.527344 133.226562 C 193.898438 132.1875 193.339844 131.066406 192.328125 130.707031 C 191.28125 130.335938 190.15625 130.890625 189.785156 131.910156 L 180.035156 159.546875 C 179.6875 160.578125 180.242188 161.699219 181.253906 162.070312 Z M 212.246094 146.804688 L 198.976562 157.269531 C 198.117188 157.941406 197.964844 159.179688 198.652344 160.035156 C 199.035156 160.519531 199.625 160.785156 200.195312 160.785156 C 200.625 160.785156 201.054688 160.648438 201.429688 160.359375 L 216.652344 148.363281 C 217.117188 148.007812 217.40625 147.429688 217.40625 146.839844 C 217.40625 146.25 217.128906 145.683594 216.664062 145.300781 L 200.8125 132.429688 C 199.953125 131.746094 198.707031 131.863281 198.035156 132.71875 C 197.335938 133.574219 197.464844 134.8125 198.3125 135.480469 Z M 172.261719 160.359375 C 172.632812 160.648438 173.0625 160.785156 173.492188 160.785156 C 174.085938 160.785156 174.652344 160.519531 175.039062 160.035156 C 175.722656 159.179688 175.574219 157.941406 174.710938 157.269531 L 161.441406 146.804688 L 175.375 135.480469 C 176.222656 134.800781 176.351562 133.550781 175.652344 132.71875 C 174.96875 131.863281 173.714844 131.746094 172.875 132.429688 L 157.027344 145.300781 C 156.5625 145.683594 156.28125 146.226562 156.28125 146.839844 C 156.28125 147.429688 156.574219 148.007812 157.050781 148.363281 L 172.261719 160.359375"/></svg>